<svg width="1024" height="1024" viewBox="0 0 1024 1024" fill="none" xmlns="http://www.w3.org/2000/svg">
<g clip-path="url(#clip0_1_3)">
<rect width="1024" height="1024" fill="url(#paint0_linear_1_3)"/>
<path d="M899.538 501.45C899.538 591.501 823.807 639.544 730.387 639.544C636.968 639.544 579.538 589.076 561.236 501.45C549.59 408.279 629.204 380.549 722.623 380.549C816.042 380.549 909.521 398.296 899.538 501.45Z" fill="url(#paint1_linear_1_3)"/>
<path fill-rule="evenodd" clip-rule="evenodd" d="M731.275 582.762C777.617 582.762 815.185 546.549 815.185 501.878C815.185 457.208 777.617 420.995 731.275 420.995C684.933 420.995 647.366 457.208 647.366 501.878C647.366 546.549 684.933 582.762 731.275 582.762ZM731.275 578.91C775.165 578.91 810.745 544.613 810.745 502.306C810.745 459.999 775.165 425.703 731.275 425.703C687.385 425.703 651.805 459.999 651.805 502.306C651.805 544.613 687.385 578.91 731.275 578.91Z" fill="#62B6FA" fill-opacity="0.8"/>
<g filter="url(#filter0_d_1_3)">
<path d="M731.053 501.45L700.42 472.778L639.374 590.679L731.053 501.45Z" fill="url(#paint2_linear_1_3)"/>
<path d="M730.094 501.176L760.728 529.849L821.773 411.948L730.094 501.176Z" fill="url(#paint3_linear_1_3)"/>
<path d="M639.374 590.638L731.053 501.363L760.773 529.876L639.374 590.638Z" fill="url(#paint4_linear_1_3)"/>
<path d="M821.773 411.989L731.053 501.45L700.375 472.751L821.773 411.989Z" fill="url(#paint5_linear_1_3)"/>
</g>
<ellipse cx="730.387" cy="501.451" rx="22.1983" ry="21.3977" fill="#592535" fill-opacity="0.4"/>
<g filter="url(#filter1_d_1_3)">
<rect x="746.37" y="485.616" width="31.2406" height="32.4095" rx="15.6203" transform="rotate(90 746.37 485.616)" fill="url(#paint6_angular_1_3)"/>
</g>
<path d="M466.982 501.45C466.982 591.501 391.251 639.544 297.831 639.544C204.412 639.544 146.982 589.076 128.681 501.45C117.034 408.279 196.648 380.549 290.067 380.549C383.486 380.549 476.965 398.296 466.982 501.45Z" fill="url(#paint7_linear_1_3)"/>
<path fill-rule="evenodd" clip-rule="evenodd" d="M298.719 582.762C345.061 582.762 382.629 546.549 382.629 501.878C382.629 457.208 345.061 420.995 298.719 420.995C252.377 420.995 214.81 457.208 214.81 501.878C214.81 546.549 252.377 582.762 298.719 582.762ZM298.719 578.91C342.609 578.91 378.189 544.613 378.189 502.306C378.189 459.999 342.609 425.703 298.719 425.703C254.829 425.703 219.249 459.999 219.249 502.306C219.249 544.613 254.829 578.91 298.719 578.91Z" fill="#62B6FA" fill-opacity="0.8"/>
<g filter="url(#filter2_d_1_3)">
<path d="M298.497 501.45L267.864 472.778L206.818 590.679L298.497 501.45Z" fill="url(#paint8_linear_1_3)"/>
<path d="M297.538 501.176L328.172 529.849L389.217 411.948L297.538 501.176Z" fill="url(#paint9_linear_1_3)"/>
<path d="M206.819 590.638L298.497 501.363L328.217 529.876L206.819 590.638Z" fill="url(#paint10_linear_1_3)"/>
<path d="M389.217 411.989L298.497 501.45L267.819 472.751L389.217 411.989Z" fill="url(#paint11_linear_1_3)"/>
</g>
<ellipse cx="297.831" cy="501.451" rx="22.1983" ry="21.3977" fill="#592535" fill-opacity="0.4"/>
<g filter="url(#filter3_d_1_3)">
<rect x="313.814" y="485.616" width="31.2406" height="32.4095" rx="15.6203" transform="rotate(90 313.814 485.616)" fill="url(#paint12_angular_1_3)"/>
</g>
<path d="M752.193 370.411C722.694 371.894 697.987 375.4 639.798 386.321C566.624 400.007 545.495 402.501 506.14 401.895C475.763 401.423 462.735 399.737 419.059 390.636C389.897 384.568 384.835 383.557 375.181 381.939C357.293 378.905 313.955 373.647 291.139 371.624C276.22 370.343 236.055 370.546 222.622 371.961C199.535 374.456 180.026 377.759 136.554 386.591C121.905 389.625 103.409 393.265 95.4435 394.681C87.478 396.164 80.8626 397.445 80.7951 397.58C80.66 397.715 80.39 404.254 80.12 412.21C79.6475 428.525 80.525 436.413 83.5627 442.75C84.5078 444.84 88.2205 449.559 92.4733 454.211C108.944 472.077 111.645 476.256 114.952 488.459C122.31 515.089 128.116 533.292 135.744 553.113C144.519 576.035 154.847 598.282 159.91 605.429C177.259 629.699 215.399 646.688 265.487 652.351C270.347 652.891 280.878 653.16 293.501 653.16C328.401 653.026 350.745 649.452 371.806 640.418C406.638 625.452 433.37 598.013 459.157 550.551C465.435 538.955 468 532.55 472.455 517.246C478.058 497.56 479.948 492.1 483.863 484.009C488.184 475.11 491.019 471.605 495.812 469.447C499.254 467.897 499.929 467.829 513.768 467.964C531.049 468.099 533.682 468.706 538.812 473.29C546.913 480.571 551.233 488.796 558.793 511.583C570.067 545.562 581.07 568.012 596.596 588.709C602.806 597.002 613.944 608.8 621.032 614.598C658.43 645.138 720.331 659.161 776.495 649.79C823.005 642.037 860.335 618.71 880.249 585.001C888.079 571.652 894.83 553.247 902.66 523.449C916.094 472.481 921.224 461.492 936.075 451.716C939.99 449.155 941.948 447.402 942.555 445.918C943.433 443.761 943.5 442.615 943.433 424.008C943.433 418.412 943.433 411.738 943.5 409.041C943.5 405.131 943.298 403.85 942.15 402.299C940.058 399.535 936.075 397.513 930.742 396.704C919.604 394.883 907.926 392.321 889.902 387.602C864.925 381.063 859.255 379.984 830.161 375.872C791.008 370.343 775.145 369.265 752.193 370.411ZM322.123 389.288C339.742 390.164 350.677 391.445 365.393 394.411C423.785 406.075 453.757 424.48 460.574 452.795C462.06 459.065 462.397 471.47 461.25 478.953C458.414 497.156 450.921 517.718 436.475 546.708C426.485 566.664 418.924 577.787 406.976 590.125C381.527 616.216 348.652 630.98 307.34 634.688C281.283 637.115 240.915 632.531 220.529 624.845C195.89 615.609 176.921 598.148 165.513 574.214C156.602 555.607 145.869 516.977 142.224 490.414C140.469 478.009 140.469 450.907 142.156 443.694C144.249 434.929 148.029 428.322 155.117 421.311C168.618 407.827 188.464 400.277 222.959 395.423C243.21 392.591 268.997 390.164 288.101 389.355C305.922 388.546 307.07 388.546 322.123 389.288ZM740.042 389.288C775.28 390.838 814.027 395.423 833.536 400.412C863.71 408.165 880.384 420.502 886.797 439.851C891.725 454.75 890.24 484.953 883.084 516.842C879.304 533.696 871.338 559.18 865.938 571.383C854.665 597.271 834.008 616.35 807.479 625.587C799.784 628.283 782.3 631.991 769.069 633.677C757.526 635.227 734.507 635.767 723.166 634.755C675.913 630.576 638.651 611.429 612.662 578.057C603.819 566.664 591.803 544.685 582.15 522.1C577.222 510.572 571.687 493.65 569.796 484.347C567.771 474.234 567.636 459.537 569.526 452.323C576.682 425.086 603.751 407.827 658.227 395.76C675.238 391.984 688.402 390.231 706.425 389.355C721.951 388.546 722.964 388.546 740.042 389.288Z" fill="black"/>
</g>
<defs>
<filter id="filter0_d_1_3" x="599.374" y="376.948" width="262.399" height="258.731" filterUnits="userSpaceOnUse" color-interpolation-filters="sRGB">
<feFlood flood-opacity="0" result="BackgroundImageFix"/>
<feColorMatrix in="SourceAlpha" type="matrix" values="0 0 0 0 0 0 0 0 0 0 0 0 0 0 0 0 0 0 127 0" result="hardAlpha"/>
<feOffset dy="5"/>
<feGaussianBlur stdDeviation="20"/>
<feComposite in2="hardAlpha" operator="out"/>
<feColorMatrix type="matrix" values="0 0 0 0 0 0 0 0 0 0 0 0 0 0 0 0 0 0 0.25 0"/>
<feBlend mode="normal" in2="BackgroundImageFix" result="effect1_dropShadow_1_3"/>
<feBlend mode="normal" in="SourceGraphic" in2="effect1_dropShadow_1_3" result="shape"/>
</filter>
<filter id="filter1_d_1_3" x="673.96" y="450.616" width="112.409" height="111.241" filterUnits="userSpaceOnUse" color-interpolation-filters="sRGB">
<feFlood flood-opacity="0" result="BackgroundImageFix"/>
<feColorMatrix in="SourceAlpha" type="matrix" values="0 0 0 0 0 0 0 0 0 0 0 0 0 0 0 0 0 0 127 0" result="hardAlpha"/>
<feOffset dy="5"/>
<feGaussianBlur stdDeviation="20"/>
<feComposite in2="hardAlpha" operator="out"/>
<feColorMatrix type="matrix" values="0 0 0 0 0 0 0 0 0 0 0 0 0 0 0 0 0 0 0.25 0"/>
<feBlend mode="normal" in2="BackgroundImageFix" result="effect1_dropShadow_1_3"/>
<feBlend mode="normal" in="SourceGraphic" in2="effect1_dropShadow_1_3" result="shape"/>
</filter>
<filter id="filter2_d_1_3" x="166.818" y="376.948" width="262.399" height="258.731" filterUnits="userSpaceOnUse" color-interpolation-filters="sRGB">
<feFlood flood-opacity="0" result="BackgroundImageFix"/>
<feColorMatrix in="SourceAlpha" type="matrix" values="0 0 0 0 0 0 0 0 0 0 0 0 0 0 0 0 0 0 127 0" result="hardAlpha"/>
<feOffset dy="5"/>
<feGaussianBlur stdDeviation="20"/>
<feComposite in2="hardAlpha" operator="out"/>
<feColorMatrix type="matrix" values="0 0 0 0 0 0 0 0 0 0 0 0 0 0 0 0 0 0 0.25 0"/>
<feBlend mode="normal" in2="BackgroundImageFix" result="effect1_dropShadow_1_3"/>
<feBlend mode="normal" in="SourceGraphic" in2="effect1_dropShadow_1_3" result="shape"/>
</filter>
<filter id="filter3_d_1_3" x="241.405" y="450.616" width="112.409" height="111.241" filterUnits="userSpaceOnUse" color-interpolation-filters="sRGB">
<feFlood flood-opacity="0" result="BackgroundImageFix"/>
<feColorMatrix in="SourceAlpha" type="matrix" values="0 0 0 0 0 0 0 0 0 0 0 0 0 0 0 0 0 0 127 0" result="hardAlpha"/>
<feOffset dy="5"/>
<feGaussianBlur stdDeviation="20"/>
<feComposite in2="hardAlpha" operator="out"/>
<feColorMatrix type="matrix" values="0 0 0 0 0 0 0 0 0 0 0 0 0 0 0 0 0 0 0.25 0"/>
<feBlend mode="normal" in2="BackgroundImageFix" result="effect1_dropShadow_1_3"/>
<feBlend mode="normal" in="SourceGraphic" in2="effect1_dropShadow_1_3" result="shape"/>
</filter>
<linearGradient id="paint0_linear_1_3" x1="512" y1="0" x2="512" y2="1024" gradientUnits="userSpaceOnUse">
<stop stop-color="#4BB7D9"/>
<stop offset="1" stop-color="#11C0F7"/>
</linearGradient>
<linearGradient id="paint1_linear_1_3" x1="730.387" y1="338.4" x2="730.387" y2="664.501" gradientUnits="userSpaceOnUse">
<stop stop-color="#1E7CF2"/>
<stop offset="1" stop-color="#33BCFF"/>
</linearGradient>
<linearGradient id="paint2_linear_1_3" x1="703.971" y1="480.481" x2="644.167" y2="590.632" gradientUnits="userSpaceOnUse">
<stop stop-color="#DFE5FB"/>
<stop offset="1" stop-color="#FEFEFF"/>
</linearGradient>
<linearGradient id="paint3_linear_1_3" x1="757.176" y1="522.146" x2="816.98" y2="411.995" gradientUnits="userSpaceOnUse">
<stop stop-color="#FE1615"/>
<stop offset="1" stop-color="#FE2C07"/>
</linearGradient>
<linearGradient id="paint4_linear_1_3" x1="690.023" y1="589.121" x2="711.205" y2="521.688" gradientUnits="userSpaceOnUse">
<stop stop-color="#CED6F2"/>
<stop offset="1" stop-color="#D6DEF9"/>
</linearGradient>
<linearGradient id="paint5_linear_1_3" x1="771.125" y1="413.506" x2="749.942" y2="480.939" gradientUnits="userSpaceOnUse">
<stop stop-color="#FE6854"/>
<stop offset="1" stop-color="#FE5D59"/>
</linearGradient>
<radialGradient id="paint6_angular_1_3" cx="0" cy="0" r="1" gradientUnits="userSpaceOnUse" gradientTransform="translate(761.522 501.821) rotate(90) scale(16.2047 15.1517)">
<stop offset="0.0729167" stop-color="#FBFBFD"/>
<stop offset="0.244792" stop-color="#C8D4DA"/>
<stop offset="0.434957" stop-color="white"/>
<stop offset="0.532623" stop-color="#AEC0CE"/>
<stop offset="0.658692" stop-color="#E3E9EE"/>
<stop offset="0.708863" stop-color="#FAFBFC"/>
<stop offset="0.861413" stop-color="#D6DFE6"/>
<stop offset="0.921875" stop-color="#B8C9D3"/>
</radialGradient>
<linearGradient id="paint7_linear_1_3" x1="297.831" y1="338.4" x2="297.831" y2="664.501" gradientUnits="userSpaceOnUse">
<stop stop-color="#1E7CF2"/>
<stop offset="1" stop-color="#33BCFF"/>
</linearGradient>
<linearGradient id="paint8_linear_1_3" x1="271.415" y1="480.481" x2="211.611" y2="590.632" gradientUnits="userSpaceOnUse">
<stop stop-color="#DFE5FB"/>
<stop offset="1" stop-color="#FEFEFF"/>
</linearGradient>
<linearGradient id="paint9_linear_1_3" x1="324.62" y1="522.146" x2="384.424" y2="411.995" gradientUnits="userSpaceOnUse">
<stop stop-color="#FE1615"/>
<stop offset="1" stop-color="#FE2C07"/>
</linearGradient>
<linearGradient id="paint10_linear_1_3" x1="257.467" y1="589.121" x2="278.649" y2="521.688" gradientUnits="userSpaceOnUse">
<stop stop-color="#CED6F2"/>
<stop offset="1" stop-color="#D6DEF9"/>
</linearGradient>
<linearGradient id="paint11_linear_1_3" x1="338.569" y1="413.506" x2="317.386" y2="480.939" gradientUnits="userSpaceOnUse">
<stop stop-color="#FE6854"/>
<stop offset="1" stop-color="#FE5D59"/>
</linearGradient>
<radialGradient id="paint12_angular_1_3" cx="0" cy="0" r="1" gradientUnits="userSpaceOnUse" gradientTransform="translate(328.966 501.821) rotate(90) scale(16.2047 15.1517)">
<stop offset="0.0729167" stop-color="#FBFBFD"/>
<stop offset="0.244792" stop-color="#C8D4DA"/>
<stop offset="0.434957" stop-color="white"/>
<stop offset="0.532623" stop-color="#AEC0CE"/>
<stop offset="0.658692" stop-color="#E3E9EE"/>
<stop offset="0.708863" stop-color="#FAFBFC"/>
<stop offset="0.861413" stop-color="#D6DFE6"/>
<stop offset="0.921875" stop-color="#B8C9D3"/>
</radialGradient>
<clipPath id="clip0_1_3">
<rect width="1024" height="1024" fill="white"/>
</clipPath>
</defs>
</svg>
